<svg enable-background="new 0 0 45 45" viewBox="0 0 45 45" xmlns="http://www.w3.org/2000/svg" xmlns:xlink="http://www.w3.org/1999/xlink"><clipPath id="a"><path d="m0 36h36v-36h-36z"/></clipPath><g clip-path="url(#a)" transform="matrix(1.25 0 0 -1.25 0 45)"><path d="m0 0c.941.657 2.357.531 3.201-.166l-.969 1.407c-.779 1.111-.5 2.313.613 3.092 1.112.778 2.646.509 3.426-.604l8.829-12.582.07.031-8.063 11.844c-.786 1.122-.638 2.544.484 3.331 1.122.784 2.67.513 3.456-.611l10.42-14.72c.786-1.123.401-2.661-.721-3.447-.191-.134-.397-.226-.607-.299v-9.129h-10v3.113c-.147.129-.967.763-1.083.929l-9.667 14.333c-.793 1.129-.519 2.686.611 3.478" fill="#ef9645" transform="translate(4.861 26.853)"/><path d="m0 0s-1.132 1.65.519 2.781c1.649 1.131 2.78-.519 2.78-.519l5.251-7.658c.18.302.379.6.599.893l-7.288 10.63s-1.131 1.649.519 2.78c1.649 1.132 2.78-.518 2.78-.518l6.856-9.997c.255.209.515.417.785.622l-7.947 11.59s-1.131 1.649.518 2.78c1.649 1.132 2.78-.518 2.78-.518l7.948-11.589c.292.179.581.335.87.498l-7.427 10.832s-1.131 1.649.519 2.78c1.649 1.132 2.78-.518 2.78-.518l7.854-11.454.629-.917.565-.825c-4.948-3.393-5.419-9.779-2.592-13.902.566-.825 1.391-.26 1.391-.26-3.394 4.949-2.357 10.51 2.592 13.903l-1.462 7.302s-.545 1.925 1.379 2.47 2.469-1.379 2.469-1.379l1.685-5.004c.668-1.984 1.379-3.961 2.32-5.83 2.657-5.28 1.07-11.843-3.941-15.279-5.465-3.747-12.935-2.355-16.683 3.11-.198.29-.364.573-.522.856l-.044-.031z" fill="#ffdc5d" transform="translate(2.695 18.664)"/><g fill="#77b255"><path d="m0 0c-4 0-8.042 4.042-8.042 8.042 0 .553-.405 1-.958 1s-1.042-.447-1.042-1c0-6 4.042-10.042 10.042-10.042.553 0 1 .489 1 1.042s-.447.958-1 .958" transform="translate(12 3.958)"/><path d="m0 0c-3 0-5 2-5 5 0 .553-.447 1-1 1s-1-.447-1-1c0-4 3-7 7-7 .553 0 1 .447 1 1s-.447 1-1 1" transform="translate(7 2)"/><path d="m0 0c-.552 0-1-.448-1-1s.448-1 1-1c4 0 8-3.589 8-8 0-.552.448-1 1-1s1 .448 1 1c0 5.514-4 10-10 10" transform="translate(24 34)"/><path d="m0 0c-.552 0-1-.406-1-.958 0-.553.448-1.042 1-1.042 3 0 4.958-2.225 4.958-4.958 0-.553.49-1 1.042-1s.958.447.958 1c0 3.836-2.958 6.958-6.958 6.958" transform="translate(29 35.959)"/></g></g></svg>